{"title":"Friends.With.Benefits.2011.DVDRip.x264.AC3.RoSubbed-playSD","uid":12492778,"size":1115099468,"categoryP":"video","categoryS":"movies","magnet":"?xt=urn:btih:b1e51f17a7a9aa5beddff06b0f27478e1575bc9f&amp;dn=Friends.With.Benefits.2011.DVDRip.x264.AC3.RoSubbed-playSD&amp;tr=udp%3A%2F%2Ftracker.leechers-paradise.org%3A6969&amp;tr=udp%3A%2F%2Fzer0day.ch%3A1337&amp;tr=udp%3A%2F%2Fopen.demonii.com%3A1337&amp;tr=udp%3A%2F%2Ftracker.coppersurfer.tk%3A6969&amp;tr=udp%3A%2F%2Fexodus.desync.com%3A6969","seeders":0,"leechers":0,"uploader":"TvTeam","files":5,"time":1443205778,"description":"------------------------------------------------------------------------\r\n\r  https://www.torrenting.com\r\n\r\nSign up is OPEN - for time being. Come and have fun.\r\n\r\n------------------------------------------------------------------------General\r\nUnique ID                                : 209793916747791988744698893200585352517 (0x9DD4D6B1355978088095259BD7F36545)\r\nComplete name                            : Friends.With.Benefits.2011.DVDRip.x264.AC3.RoSubbed-playSD.mkv\r\nFormat                                   : Matroska\r\nFormat version                           : Version 2\r\nFile size                                : 1.03 GiB\r\nDuration                                 : 1h 44mn\r\nOverall bit rate                         : 1 401 Kbps\r\nEncoded date                             : UTC 2015-08-27 13:39:07\r\nWriting application                      : mkvmerge v7.0.0 ('Where We Going') 32bit built on Jun  9 2014 15:08:34\r\nWriting library                          : libebml v1.3.0 + libmatroska v1.4.1\r\n_STATISTICS_WRITING_APP                  : mkvmerge v7.0.0 ('Where We Going') 32bit built on Jun  9 2014 15:08:34\r\n_STATISTICS_WRITING_DATE_UTC             : 2015-08-27 13:39:07\r\n_STATISTICS_TAGS                         : BPS DURATION NUMBER_OF_FRAMES NUMBER_OF_BYTES\r\nDURATION                                 : 01:44:58.784000000\r\nNUMBER_OF_FRAMES                         : 196837\r\nNUMBER_OF_BYTES                          : 302341632\r\n\r\nVideo\r\nID                                       : 1\r\nFormat                                   : AVC\r\nFormat/Info                              : Advanced Video Codec\r\nFormat profile                           :   \r\nFormat settings, CABAC                   : Yes\r\nFormat settings, ReFrames                : 3 frames\r\nCodec ID                                 : V_MPEG4/ISO/AVC\r\nDuration                                 : 1h 44mn\r\nBit rate                                 : 990 Kbps\r\nWidth                                    : 720 pixels\r\nHeight                                   : 306 pixels\r\nDisplay aspect ratio                     : 2.35:1\r\nFrame rate mode                          : Constant\r\nFrame rate                               : 25.000 fps\r\nColor space                              : YUV\r\nChroma subsampling                       : 4:2:0\r\nBit depth                                : 8 bits\r\nScan type                                : Progressive\r\nBits/(Pixel*Frame)                       : 0.180\r\nStream size                              : 743 MiB (71%)\r\nWriting library                          : x264 core 125 r2200 999b753\r\nEncoding settings                        : cabac=1 / ref=2 / deblock=1:-3:-3 / analyse=0x3:0x113 / me=hex / subme=6 / psy=1 / psy_rd=0.00:0.00 / mixed_ref=1 / me_range=16 / chroma_me=1 / trellis=1 / 8x8dct=1 / cqm=0 / deadzone=21,11 / fast_pskip=1 / chroma_qp_offset=0 / threads=6 / lookahead_threads=1 / sliced_threads=0 / nr=0 / decimate=1 / interlaced=0 / bluray_compat=0 / constrained_intra=0 / bframes=3 / b_pyramid=1 / b_adapt=1 / b_bias=0 / direct=1 / weightb=1 / open_gop=0 / weightp=1 / keyint=250 / keyint_min=25 / scenecut=40 / intra_refresh=0 / rc_lookahead=30 / rc=crf / mbtree=1 / crf=18.0 / qcomp=0.60 / qpmin=0 / qpmax=69 / qpstep=4 / ip_ratio=1.40 / aq=1:1.00\r\nDefault                                  : Yes\r\nForced                                   : No\r\n\r\nAudio\r\nID                                       : 2\r\nFormat                                   : AC-3\r\nFormat/Info                              : Audio Coding 3\r\nMode extension                           : CM (complete main)\r\nFormat settings, Endianness              : Big\r\nCodec ID                                 : A_AC3\r\nDuration                                 : 1h 44mn\r\nBit rate mode                            : Constant\r\nBit rate                                 : 384 Kbps\r\nChannel(s)                               : 6 channels\r\nChannel positions                        : Front: L C R, Side: L R, LFE\r\nSampling rate                            : 48.0 KHz\r\nCompression mode                         : Lossy\r\nStream size                              : 288 MiB (27%)\r\nDefault                                  : Yes\r\nForced                                   : No","torrent":{"xt":"urn:btih:b1e51f17a7a9aa5beddff06b0f27478e1575bc9f","amp;dn":"Friends.With.Benefits.2011.DVDRip.x264.AC3.RoSubbed-playSD","amp;tr":["udp%3A%2F%2Ftracker.leechers-paradise.org%3A6969","udp%3A%2F%2Fzer0day.ch%3A1337","udp%3A%2F%2Fopen.demonii.com%3A1337","udp%3A%2F%2Ftracker.coppersurfer.tk%3A6969","udp%3A%2F%2Fexodus.desync.com%3A6969"],"infoHash":"b1e51f17a7a9aa5beddff06b0f27478e1575bc9f","infoHashBuffer":{"type":"Buffer","data":[177,229,31,23,167,169,170,91,237,223,240,107,15,39,71,142,21,117,188,159]},"announce":[],"urlList":[]}}